<?xml version="1.0" encoding="UTF-8"?>
<svg xmlns="http://www.w3.org/2000/svg" xmlns:xlink="http://www.w3.org/1999/xlink" width="15pt" height="15pt" viewBox="0 0 15 15" version="1.1">
<g id="surface1">
<path style=" stroke:none;fill-rule:nonzero;fill:rgb(0%,0%,0%);fill-opacity:1;" d="M 13.347656 1.179688 L 12.640625 1.179688 L 12.640625 0 L 11.457031 0 L 11.457031 1.179688 L 3.660156 1.179688 L 3.660156 0 L 2.480469 0 L 2.480469 1.179688 L 1.773438 1.179688 C 0.792969 1.179688 0 1.972656 0 2.953125 L 0 13.347656 C 0 14.324219 0.792969 15.121094 1.773438 15.121094 L 13.347656 15.121094 C 14.324219 15.121094 15.121094 14.324219 15.121094 13.347656 L 15.121094 2.953125 C 15.121094 1.972656 14.324219 1.179688 13.347656 1.179688 Z M 13.941406 13.347656 C 13.941406 13.675781 13.675781 13.941406 13.347656 13.941406 L 1.773438 13.941406 C 1.449219 13.941406 1.179688 13.675781 1.179688 13.347656 L 1.179688 5.550781 L 13.941406 5.550781 Z M 13.941406 4.371094 L 1.179688 4.371094 L 1.179688 2.953125 C 1.179688 2.628906 1.449219 2.363281 1.773438 2.363281 L 2.480469 2.363281 L 2.480469 3.542969 L 3.660156 3.542969 L 3.660156 2.363281 L 11.457031 2.363281 L 11.457031 3.542969 L 12.640625 3.542969 L 12.640625 2.363281 L 13.347656 2.363281 C 13.675781 2.363281 13.941406 2.628906 13.941406 2.953125 Z M 13.941406 4.371094 "/>
<path style=" stroke:none;fill-rule:nonzero;fill:rgb(0%,0%,0%);fill-opacity:1;" d="M 2.246094 6.792969 L 3.425781 6.792969 L 3.425781 7.972656 L 2.246094 7.972656 Z M 2.246094 6.792969 "/>
<path style=" stroke:none;fill-rule:nonzero;fill:rgb(0%,0%,0%);fill-opacity:1;" d="M 4.609375 6.792969 L 5.789062 6.792969 L 5.789062 7.972656 L 4.609375 7.972656 Z M 4.609375 6.792969 "/>
<path style=" stroke:none;fill-rule:nonzero;fill:rgb(0%,0%,0%);fill-opacity:1;" d="M 6.96875 6.792969 L 8.152344 6.792969 L 8.152344 7.972656 L 6.96875 7.972656 Z M 6.96875 6.792969 "/>
<path style=" stroke:none;fill-rule:nonzero;fill:rgb(0%,0%,0%);fill-opacity:1;" d="M 9.332031 6.792969 L 10.515625 6.792969 L 10.515625 7.972656 L 9.332031 7.972656 Z M 9.332031 6.792969 "/>
<path style=" stroke:none;fill-rule:nonzero;fill:rgb(0%,0%,0%);fill-opacity:1;" d="M 11.695312 6.792969 L 12.875 6.792969 L 12.875 7.972656 L 11.695312 7.972656 Z M 11.695312 6.792969 "/>
<path style=" stroke:none;fill-rule:nonzero;fill:rgb(0%,0%,0%);fill-opacity:1;" d="M 2.246094 9.15625 L 3.425781 9.15625 L 3.425781 10.335938 L 2.246094 10.335938 Z M 2.246094 9.15625 "/>
<path style=" stroke:none;fill-rule:nonzero;fill:rgb(0%,0%,0%);fill-opacity:1;" d="M 4.609375 9.15625 L 5.789062 9.15625 L 5.789062 10.335938 L 4.609375 10.335938 Z M 4.609375 9.15625 "/>
<path style=" stroke:none;fill-rule:nonzero;fill:rgb(0%,0%,0%);fill-opacity:1;" d="M 6.96875 9.15625 L 8.152344 9.15625 L 8.152344 10.335938 L 6.96875 10.335938 Z M 6.96875 9.15625 "/>
<path style=" stroke:none;fill-rule:nonzero;fill:rgb(0%,0%,0%);fill-opacity:1;" d="M 9.332031 9.15625 L 10.515625 9.15625 L 10.515625 10.335938 L 9.332031 10.335938 Z M 9.332031 9.15625 "/>
<path style=" stroke:none;fill-rule:nonzero;fill:rgb(0%,0%,0%);fill-opacity:1;" d="M 2.246094 11.515625 L 3.425781 11.515625 L 3.425781 12.699219 L 2.246094 12.699219 Z M 2.246094 11.515625 "/>
<path style=" stroke:none;fill-rule:nonzero;fill:rgb(0%,0%,0%);fill-opacity:1;" d="M 4.609375 11.515625 L 5.789062 11.515625 L 5.789062 12.699219 L 4.609375 12.699219 Z M 4.609375 11.515625 "/>
<path style=" stroke:none;fill-rule:nonzero;fill:rgb(0%,0%,0%);fill-opacity:1;" d="M 6.96875 11.515625 L 8.152344 11.515625 L 8.152344 12.699219 L 6.96875 12.699219 Z M 6.96875 11.515625 "/>
<path style=" stroke:none;fill-rule:nonzero;fill:rgb(0%,0%,0%);fill-opacity:1;" d="M 9.332031 11.515625 L 10.515625 11.515625 L 10.515625 12.699219 L 9.332031 12.699219 Z M 9.332031 11.515625 "/>
<path style=" stroke:none;fill-rule:nonzero;fill:rgb(0%,0%,0%);fill-opacity:1;" d="M 11.695312 9.15625 L 12.875 9.15625 L 12.875 10.335938 L 11.695312 10.335938 Z M 11.695312 9.15625 "/>
</g>
</svg>
