<?xml version="1.0" encoding="UTF-8"?>
<svg xmlns="http://www.w3.org/2000/svg" xmlns:xlink="http://www.w3.org/1999/xlink" width="15pt" height="15pt" viewBox="0 0 15 15" version="1.1">
<g id="surface1">
<path style=" stroke:none;fill-rule:nonzero;fill:rgb(0%,0%,0%);fill-opacity:1;" d="M 13.628906 0 L 11.304688 0 C 11.179688 0 11.082031 0.0976562 11.082031 0.222656 C 11.082031 0.34375 11.179688 0.445312 11.304688 0.445312 L 12.566406 0.445312 C 12.605469 0.445312 12.640625 0.476562 12.640625 0.515625 L 12.640625 7.339844 L 9.449219 7.339844 C 9.34375 6.394531 8.535156 5.65625 7.558594 5.65625 C 6.585938 5.65625 5.777344 6.394531 5.671875 7.339844 L 2.480469 7.339844 L 2.480469 0.515625 C 2.480469 0.476562 2.515625 0.445312 2.554688 0.445312 L 5.167969 0.445312 L 5.167969 2.511719 C 5.167969 2.632812 5.265625 2.734375 5.390625 2.734375 L 5.84375 2.734375 C 5.941406 3.597656 6.675781 4.265625 7.558594 4.265625 C 8.445312 4.265625 9.179688 3.597656 9.277344 2.734375 L 9.730469 2.734375 C 9.855469 2.734375 9.953125 2.632812 9.953125 2.511719 L 9.953125 0.445312 L 10.257812 0.445312 C 10.378906 0.445312 10.476562 0.34375 10.476562 0.222656 C 10.476562 0.0976562 10.378906 0 10.257812 0 L 1.492188 0 C 1.207031 0 0.976562 0.230469 0.976562 0.515625 L 0.976562 10.828125 C 0.976562 10.949219 1.074219 11.050781 1.199219 11.050781 C 1.320312 11.050781 1.421875 10.949219 1.421875 10.828125 L 1.421875 9.5 L 2.035156 9.328125 L 2.035156 14.605469 C 2.035156 14.628906 2.039062 14.652344 2.042969 14.675781 L 1.492188 14.675781 C 1.453125 14.675781 1.421875 14.644531 1.421875 14.605469 L 1.421875 11.871094 C 1.421875 11.75 1.320312 11.652344 1.199219 11.652344 C 1.074219 11.652344 0.976562 11.75 0.976562 11.871094 L 0.976562 14.605469 C 0.976562 14.890625 1.207031 15.121094 1.492188 15.121094 L 13.628906 15.121094 C 13.914062 15.121094 14.144531 14.890625 14.144531 14.605469 L 14.144531 0.515625 C 14.144531 0.230469 13.914062 0 13.628906 0 Z M 7.558594 3.824219 C 6.917969 3.824219 6.382812 3.351562 6.292969 2.734375 L 8.828125 2.734375 C 8.738281 3.351562 8.203125 3.824219 7.558594 3.824219 Z M 8.460938 0.445312 L 8.460938 1.261719 L 6.660156 1.261719 L 6.660156 0.445312 Z M 6.214844 0.445312 L 6.214844 1.484375 C 6.214844 1.605469 6.316406 1.707031 6.4375 1.707031 L 8.683594 1.707031 C 8.804688 1.707031 8.90625 1.605469 8.90625 1.484375 L 8.90625 0.445312 L 9.507812 0.445312 L 9.507812 2.289062 L 5.609375 2.289062 L 5.609375 0.441406 Z M 13.628906 0.445312 C 13.667969 0.445312 13.699219 0.476562 13.699219 0.515625 L 13.699219 5.621094 L 13.085938 5.792969 L 13.085938 0.515625 C 13.085938 0.492188 13.082031 0.46875 13.078125 0.445312 Z M 7.558594 6.101562 C 8.289062 6.101562 8.898438 6.640625 9.003906 7.339844 L 6.117188 7.339844 C 6.222656 6.640625 6.832031 6.101562 7.558594 6.101562 Z M 9.003906 7.78125 C 8.898438 8.480469 8.289062 9.019531 7.558594 9.019531 C 6.832031 9.019531 6.222656 8.480469 6.117188 7.78125 Z M 1.421875 9.042969 L 1.421875 0.515625 C 1.421875 0.476562 1.453125 0.445312 1.492188 0.445312 L 2.042969 0.445312 C 2.039062 0.46875 2.035156 0.492188 2.035156 0.515625 L 2.035156 8.871094 Z M 6.660156 14.675781 L 6.660156 13.859375 L 8.460938 13.859375 L 8.460938 14.675781 Z M 8.90625 14.675781 L 8.90625 13.636719 C 8.90625 13.515625 8.804688 13.414062 8.683594 13.414062 L 6.4375 13.414062 C 6.316406 13.414062 6.214844 13.515625 6.214844 13.636719 L 6.214844 14.675781 L 5.609375 14.675781 L 5.609375 12.832031 L 9.507812 12.832031 L 9.507812 14.675781 Z M 6.292969 12.386719 C 6.382812 11.769531 6.917969 11.296875 7.558594 11.296875 C 8.203125 11.296875 8.738281 11.769531 8.828125 12.386719 Z M 13.628906 14.675781 L 13.078125 14.675781 C 13.082031 14.652344 13.085938 14.628906 13.085938 14.605469 L 13.085938 9.175781 C 13.085938 9.054688 12.984375 8.953125 12.863281 8.953125 C 12.738281 8.953125 12.640625 9.054688 12.640625 9.175781 L 12.640625 14.605469 C 12.640625 14.644531 12.605469 14.675781 12.566406 14.675781 L 9.953125 14.675781 L 9.953125 12.609375 C 9.953125 12.488281 9.855469 12.386719 9.730469 12.386719 L 9.277344 12.386719 C 9.179688 11.523438 8.445312 10.855469 7.558594 10.855469 C 6.675781 10.855469 5.941406 11.523438 5.84375 12.386719 L 5.390625 12.386719 C 5.265625 12.386719 5.167969 12.488281 5.167969 12.609375 L 5.167969 14.675781 L 2.554688 14.675781 C 2.515625 14.675781 2.480469 14.644531 2.480469 14.605469 L 2.480469 7.78125 L 5.671875 7.78125 C 5.777344 8.726562 6.585938 9.464844 7.558594 9.464844 C 8.535156 9.464844 9.34375 8.726562 9.449219 7.78125 L 12.640625 7.78125 L 12.640625 8.128906 C 12.640625 8.253906 12.738281 8.351562 12.863281 8.351562 C 12.984375 8.351562 13.085938 8.253906 13.085938 8.128906 L 13.085938 6.25 L 13.699219 6.078125 L 13.699219 14.605469 C 13.699219 14.644531 13.667969 14.675781 13.628906 14.675781 Z M 13.628906 14.675781 "/>
<path style=" stroke:none;fill-rule:nonzero;fill:rgb(0%,0%,0%);fill-opacity:1;" d="M 12.167969 5.867188 L 12.167969 1.289062 C 12.167969 1.167969 12.070312 1.066406 11.945312 1.066406 C 11.824219 1.066406 11.722656 1.167969 11.722656 1.289062 L 11.722656 5.867188 C 11.722656 5.988281 11.824219 6.089844 11.945312 6.089844 C 12.070312 6.089844 12.167969 5.988281 12.167969 5.867188 Z M 12.167969 5.867188 "/>
<path style=" stroke:none;fill-rule:nonzero;fill:rgb(0%,0%,0%);fill-opacity:1;" d="M 11.945312 9.03125 C 11.824219 9.03125 11.722656 9.132812 11.722656 9.253906 L 11.722656 13.832031 C 11.722656 13.953125 11.824219 14.054688 11.945312 14.054688 C 12.070312 14.054688 12.167969 13.953125 12.167969 13.832031 L 12.167969 9.253906 C 12.167969 9.132812 12.070312 9.03125 11.945312 9.03125 Z M 11.945312 9.03125 "/>
<path style=" stroke:none;fill-rule:nonzero;fill:rgb(0%,0%,0%);fill-opacity:1;" d="M 2.953125 1.289062 L 2.953125 5.867188 C 2.953125 5.988281 3.050781 6.089844 3.175781 6.089844 C 3.296875 6.089844 3.398438 5.988281 3.398438 5.867188 L 3.398438 1.289062 C 3.398438 1.167969 3.296875 1.066406 3.175781 1.066406 C 3.050781 1.066406 2.953125 1.167969 2.953125 1.289062 Z M 2.953125 1.289062 "/>
<path style=" stroke:none;fill-rule:nonzero;fill:rgb(0%,0%,0%);fill-opacity:1;" d="M 3.175781 9.03125 C 3.050781 9.03125 2.953125 9.132812 2.953125 9.253906 L 2.953125 13.832031 C 2.953125 13.953125 3.050781 14.054688 3.175781 14.054688 C 3.296875 14.054688 3.398438 13.953125 3.398438 13.832031 L 3.398438 9.253906 C 3.398438 9.132812 3.296875 9.03125 3.175781 9.03125 Z M 3.175781 9.03125 "/>
</g>
</svg>
