<?xml version="1.0" encoding="UTF-8"?>
<svg xmlns="http://www.w3.org/2000/svg" xmlns:xlink="http://www.w3.org/1999/xlink" width="15pt" height="15pt" viewBox="0 0 15 15" version="1.1">
<g id="surface1">
<path style=" stroke:none;fill-rule:nonzero;fill:rgb(0%,0%,0%);fill-opacity:1;" d="M 12.171875 2.570312 C 10.324219 1.875 9.144531 0.984375 8.480469 0.363281 C 7.964844 -0.121094 7.15625 -0.121094 6.640625 0.363281 C 5.976562 0.984375 4.796875 1.875 2.949219 2.570312 C 1.726562 3.035156 0.972656 4.265625 1.109375 5.570312 C 1.246094 6.859375 1.507812 8.746094 1.988281 10.425781 C 2.226562 11.25 2.679688 12.003906 3.308594 12.59375 C 3.398438 12.679688 3.535156 12.671875 3.621094 12.585938 C 3.703125 12.496094 3.703125 12.355469 3.613281 12.273438 C 3.046875 11.734375 2.628906 11.050781 2.417969 10.300781 C 1.945312 8.652344 1.683594 6.796875 1.550781 5.523438 C 1.433594 4.421875 2.074219 3.375 3.109375 2.988281 C 5.023438 2.261719 6.25 1.335938 6.945312 0.683594 C 7.292969 0.363281 7.832031 0.363281 8.175781 0.683594 C 8.871094 1.335938 10.097656 2.261719 12.015625 2.988281 C 13.050781 3.375 13.6875 4.421875 13.574219 5.523438 C 13.4375 6.792969 13.175781 8.652344 12.707031 10.300781 C 12.414062 11.316406 11.769531 12.1875 10.882812 12.761719 C 10.046875 13.308594 8.980469 14 8.234375 14.480469 C 7.824219 14.742188 7.296875 14.742188 6.890625 14.480469 C 6.171875 14.019531 5.144531 13.355469 4.320312 12.816406 C 4.21875 12.75 4.082031 12.78125 4.015625 12.882812 C 3.949219 12.984375 3.976562 13.121094 4.078125 13.191406 C 4.90625 13.726562 5.933594 14.390625 6.648438 14.851562 C 6.925781 15.03125 7.242188 15.121094 7.558594 15.121094 C 7.878906 15.121094 8.195312 15.03125 8.472656 14.851562 C 9.222656 14.371094 10.289062 13.679688 11.125 13.136719 C 12.101562 12.5 12.8125 11.539062 13.132812 10.425781 C 13.609375 8.746094 13.875 6.859375 14.011719 5.570312 C 14.152344 4.265625 13.394531 3.035156 12.171875 2.570312 Z M 12.171875 2.570312 "/>
<path style=" stroke:none;fill-rule:nonzero;fill:rgb(0%,0%,0%);fill-opacity:1;" d="M 10.761719 3.746094 C 10.875 3.796875 11.003906 3.746094 11.054688 3.636719 C 11.105469 3.523438 11.054688 3.394531 10.945312 3.34375 C 9.371094 2.640625 8.316406 1.820312 7.710938 1.261719 C 7.625 1.179688 7.496094 1.179688 7.410156 1.261719 C 6.671875 1.945312 5.371094 2.921875 3.367188 3.675781 C 2.648438 3.949219 2.203125 4.679688 2.285156 5.445312 C 2.414062 6.6875 2.667969 8.5 3.125 10.097656 C 3.367188 10.9375 3.902344 11.667969 4.640625 12.144531 C 5.480469 12.691406 6.542969 13.378906 7.289062 13.859375 C 7.394531 13.925781 7.496094 13.941406 7.558594 13.941406 C 7.628906 13.941406 7.730469 13.925781 7.832031 13.859375 C 8.582031 13.378906 9.648438 12.6875 10.484375 12.144531 C 11.21875 11.667969 11.753906 10.9375 11.996094 10.097656 C 12.453125 8.5 12.707031 6.6875 12.839844 5.445312 C 12.917969 4.679688 12.472656 3.949219 11.75 3.675781 C 11.636719 3.632812 11.511719 3.691406 11.464844 3.804688 C 11.421875 3.917969 11.480469 4.046875 11.597656 4.09375 C 12.128906 4.292969 12.457031 4.832031 12.398438 5.398438 C 12.339844 5.929688 12.261719 6.566406 12.15625 7.242188 L 10.398438 7.242188 C 10.292969 5.851562 9.175781 4.734375 7.78125 4.625 L 7.78125 1.914062 C 8.4375 2.460938 9.417969 3.148438 10.761719 3.746094 Z M 3.523438 4.09375 C 5.292969 3.421875 6.539062 2.585938 7.339844 1.914062 L 7.339844 4.625 C 5.945312 4.734375 4.828125 5.851562 4.722656 7.242188 L 2.96875 7.242188 C 2.859375 6.566406 2.78125 5.929688 2.722656 5.398438 C 2.664062 4.832031 2.992188 4.292969 3.523438 4.09375 Z M 9.558594 6.128906 C 9.808594 6.503906 9.957031 6.949219 9.964844 7.429688 L 9.636719 7.0625 C 9.535156 6.949219 9.484375 6.792969 9.5 6.640625 Z M 9.308594 7.363281 L 9.898438 8.019531 C 9.863281 8.175781 9.8125 8.324219 9.746094 8.464844 L 8.898438 8.640625 C 8.617188 8.703125 8.375 8.882812 8.234375 9.140625 L 7.847656 9.851562 C 7.558594 9.898438 7.378906 9.863281 7.292969 9.855469 L 6.886719 9.128906 C 6.746094 8.878906 6.503906 8.703125 6.222656 8.644531 L 5.378906 8.472656 C 5.308594 8.320312 5.253906 8.164062 5.214844 7.996094 L 5.804688 7.363281 C 6 7.152344 6.09375 6.871094 6.0625 6.585938 L 5.964844 5.671875 C 6.070312 5.574219 6.183594 5.492188 6.304688 5.414062 L 7.15625 5.796875 C 7.285156 5.855469 7.585938 5.984375 7.96875 5.796875 L 8.808594 5.414062 C 8.9375 5.488281 9.054688 5.578125 9.164062 5.675781 L 9.058594 6.589844 C 9.027344 6.871094 9.121094 7.152344 9.308594 7.363281 Z M 9.417969 8.988281 C 9.160156 9.304688 8.820312 9.554688 8.429688 9.707031 L 8.625 9.347656 C 8.703125 9.210938 8.832031 9.109375 8.992188 9.078125 Z M 5.570312 6.121094 L 5.625 6.632812 C 5.640625 6.789062 5.585938 6.945312 5.480469 7.0625 L 5.15625 7.410156 C 5.167969 6.933594 5.316406 6.488281 5.570312 6.121094 Z M 6.703125 9.710938 C 6.3125 9.5625 5.964844 9.3125 5.703125 8.992188 L 6.136719 9.078125 C 6.289062 9.109375 6.421875 9.210938 6.5 9.34375 Z M 7.785156 5.390625 C 7.640625 5.457031 7.476562 5.457031 7.335938 5.394531 L 6.84375 5.167969 C 7.070312 5.097656 7.558594 4.953125 8.273438 5.167969 Z M 4.882812 11.773438 C 4.234375 11.351562 3.765625 10.714844 3.550781 9.976562 C 3.339844 9.234375 3.171875 8.445312 3.039062 7.6875 L 4.722656 7.6875 C 4.828125 9.082031 5.945312 10.195312 7.339844 10.304688 L 7.339844 13.367188 C 6.609375 12.894531 5.652344 12.273438 4.882812 11.773438 Z M 11.570312 9.976562 C 11.359375 10.714844 10.886719 11.351562 10.242188 11.773438 C 9.472656 12.273438 8.511719 12.894531 7.78125 13.367188 L 7.78125 10.304688 C 9.175781 10.195312 10.292969 9.082031 10.398438 7.6875 L 12.082031 7.6875 C 11.949219 8.445312 11.78125 9.234375 11.570312 9.976562 Z M 11.570312 9.976562 "/>
<path style=" stroke:none;fill-rule:nonzero;fill:rgb(0%,0%,0%);fill-opacity:1;" d="M 8.332031 6.953125 L 7.847656 6.601562 C 7.675781 6.476562 7.445312 6.476562 7.273438 6.601562 L 6.789062 6.953125 C 6.621094 7.074219 6.550781 7.296875 6.617188 7.496094 L 6.800781 8.066406 C 6.867188 8.265625 7.050781 8.402344 7.261719 8.402344 L 7.859375 8.402344 C 8.070312 8.402344 8.257812 8.265625 8.320312 8.066406 L 8.507812 7.496094 C 8.570312 7.296875 8.5 7.074219 8.332031 6.953125 Z M 8.085938 7.359375 L 7.902344 7.929688 C 7.894531 7.945312 7.878906 7.957031 7.859375 7.957031 L 7.261719 7.957031 C 7.242188 7.957031 7.226562 7.945312 7.21875 7.929688 L 7.035156 7.359375 C 7.03125 7.339844 7.035156 7.320312 7.050781 7.3125 L 7.535156 6.960938 C 7.542969 6.953125 7.550781 6.949219 7.558594 6.949219 C 7.570312 6.949219 7.578125 6.953125 7.585938 6.960938 L 8.070312 7.3125 C 8.085938 7.320312 8.09375 7.339844 8.085938 7.359375 Z M 8.085938 7.359375 "/>
</g>
</svg>
